<?xml version="1.0" encoding="UTF-8"?>
<svg id="Capa_2" xmlns="http://www.w3.org/2000/svg" version="1.1" xmlns:xlink="http://www.w3.org/1999/xlink" viewBox="0 0 504.8 504.8">
  <!-- Generator: Adobe Illustrator 30.3.0, SVG Export Plug-In . SVG Version: 2.1.3 Build 182)  -->
  <defs>
    <style>
      .st0 {
        fill: #fff;
      }

      .st1 {
        fill: none;
      }

      .st2 {
        clip-path: url(#clippath-1);
      }

      .st3 {
        clip-path: url(#clippath);
      }
    </style>
    <clipPath id="clippath">
      <circle class="st1" cx="252.4" cy="252.4" r="252.4"/>
    </clipPath>
    <clipPath id="clippath-1">
      <rect class="st1" y="-24.8" width="1149" height="653.8"/>
    </clipPath>
  </defs>
  <g id="Capa_2-2">
    <g>
      <g class="st3">
        <g class="st2">
          <rect width="626.5" height="629"/>
        </g>
      </g>
      <path class="st0" d="M100.2,227.9c-24.1,0-45-16.9-50.5-40h142.2c24.1,0,45.1,16.9,50.5,40H100.2Z"/>
      <path class="st0" d="M404.6,227.9c24.1,0,45-16.9,50.5-40h-142.2c-24.1,0-45,16.9-50.5,40h142.2Z"/>
      <path class="st0" d="M171.3,292.6c-24.1,0-45.1-16.9-50.5-40h81.5c22.1,0,40,17.9,40,40h-71.1,0Z"/>
      <path class="st0" d="M302.4,252.3c-22.1,0-40,17.9-40,40v71.7h40v-71.7h31.1c24.1,0,45-16.9,50.5-40h-81.6Z"/>
      <path class="st0" d="M218.9,366.4c-13,0-23.5-10.5-23.5-23.5s10.6-23.5,23.5-23.5,23.5,10.5,23.5,23.5-10.5,23.5-23.5,23.5"/>
    </g>
  </g>
</svg>